<svg width="11" height="22" viewBox="0 0 11 22" fill="none" xmlns="http://www.w3.org/2000/svg">
<path d="M1.83858 22C2.07335 22.0008 2.30531 21.949 2.51742 21.8484C2.72953 21.7478 2.9164 21.6009 3.0643 21.4186L10.6543 11.99C10.8854 11.7088 11.0118 11.3561 11.0118 10.9922C11.0118 10.6282 10.8854 10.2755 10.6543 9.9943L2.79716 0.565729C2.53042 0.244817 2.14714 0.0430074 1.73161 0.00469637C1.31608 -0.0336146 0.902354 0.0947112 0.581442 0.361443C0.26053 0.628175 0.0587206 1.01146 0.0204096 1.42699C-0.0179014 1.84252 0.110424 2.25625 0.377156 2.57716L7.40144 11L0.612871 19.4229C0.420712 19.6535 0.298648 19.9344 0.261123 20.2323C0.223598 20.5301 0.272182 20.8325 0.401127 21.1036C0.530071 21.3747 0.73398 21.6033 0.988725 21.7621C1.24347 21.921 1.53839 22.0035 1.83858 22Z" fill="white"/>
</svg>
