<svg width="33" height="17" viewBox="0 0 33 17" fill="none" xmlns="http://www.w3.org/2000/svg">
<g clip-path="url(#clip0)">
<path d="M32.9959 13.7348C32.9971 13.3827 32.9194 13.0348 32.7685 12.7167C32.6176 12.3985 32.3973 12.1182 32.1239 11.8964L17.9823 0.51249C17.5606 0.165829 17.0316 -0.0236816 16.4857 -0.0236816C15.9398 -0.0236816 15.4108 0.165829 14.9891 0.51249L0.847537 12.2971C0.366214 12.6972 0.0635281 13.272 0.00606706 13.8953C-0.051394 14.5185 0.141077 15.139 0.541137 15.6203C0.941197 16.1017 1.51608 16.4044 2.13931 16.4618C2.76254 16.5193 3.38307 16.3268 3.86439 15.9267L16.4975 5.39131L29.1306 15.5732C29.4765 15.8614 29.8978 16.0445 30.3446 16.1008C30.7913 16.1571 31.2449 16.0842 31.6515 15.8908C32.0581 15.6974 32.4008 15.3916 32.6391 15.0095C32.8774 14.6274 33.0012 14.1851 32.9959 13.7348Z" fill="white"/>
</g>
<defs>
<clipPath id="clip0">
<rect width="17" height="33" fill="white" transform="matrix(0 1 1 0 0 0)"/>
</clipPath>
</defs>
</svg>
