<svg width="16" height="9" viewBox="0 0 16 9" fill="none" xmlns="http://www.w3.org/2000/svg">
<g clip-path="url(#clip0)">
<path d="M3.43323e-05 1.83719C-0.000545502 2.00793 0.037137 2.17663 0.110312 2.33089C0.183488 2.48515 0.290298 2.62106 0.422893 2.72862L7.28003 8.24862C7.48453 8.41671 7.74103 8.50861 8.00575 8.50861C8.27046 8.50861 8.52697 8.41671 8.73146 8.24862L15.5886 2.53433C15.822 2.34035 15.9688 2.06159 15.9966 1.75939C16.0245 1.45719 15.9312 1.1563 15.7372 0.922906C15.5432 0.689516 15.2644 0.542745 14.9622 0.514883C14.66 0.48702 14.3591 0.580348 14.1257 0.774334L8.00003 5.88291L1.87432 0.945764C1.70657 0.806012 1.50229 0.717237 1.28566 0.689947C1.06904 0.662656 0.849124 0.697989 0.651949 0.791768C0.454775 0.885546 0.28859 1.03384 0.173059 1.21911C0.0575266 1.40438 -0.00251579 1.61887 3.43323e-05 1.83719Z" fill="#2E313A"/>
</g>
<defs>
<clipPath id="clip0">
<rect width="8" height="16" fill="white" transform="matrix(0 -1 -1 0 16 8.5)"/>
</clipPath>
</defs>
</svg>
