<svg width="15" height="16" viewBox="0 0 15 16" fill="none" xmlns="http://www.w3.org/2000/svg">
<g clip-path="url(#clip0)">
<path d="M3.19971 7.20001H4.79971V8.80001H3.19971V7.20001ZM3.19971 10.4H4.79971V12H3.19971V10.4ZM6.39971 7.20001H7.99971V8.80001H6.39971V7.20001ZM6.39971 10.4H7.99971V12H6.39971V10.4ZM9.59971 7.20001H11.1997V8.80001H9.59971V7.20001ZM9.59971 10.4H11.1997V12H9.59971V10.4Z" fill="#29547A"/>
<path d="M1.6 16H12.8C13.6824 16 14.4 15.2824 14.4 14.4V3.2C14.4 2.3176 13.6824 1.6 12.8 1.6H11.2V0H9.6V1.6H4.8V0H3.2V1.6H1.6C0.7176 1.6 0 2.3176 0 3.2V14.4C0 15.2824 0.7176 16 1.6 16ZM12.8 4.8L12.8008 14.4H1.6V4.8H12.8Z" fill="#29547A"/>
</g>
<defs>
<clipPath id="clip0">
<rect width="14.4" height="16" fill="white"/>
</clipPath>
</defs>
</svg>
