<svg width="19" height="19" viewBox="0 0 19 19" fill="none" xmlns="http://www.w3.org/2000/svg">
<path d="M8.99894 4.37683C7.77258 4.37683 6.59645 4.864 5.72928 5.73117C4.86211 6.59834 4.37494 7.77447 4.37494 9.00083C4.37494 10.2272 4.86211 11.4033 5.72928 12.2705C6.59645 13.1377 7.77258 13.6248 8.99894 13.6248C10.2253 13.6248 11.4014 13.1377 12.2686 12.2705C13.1358 11.4033 13.6229 10.2272 13.6229 9.00083C13.6229 7.77447 13.1358 6.59834 12.2686 5.73117C11.4014 4.864 10.2253 4.37683 8.99894 4.37683ZM8.99894 12.0038C8.20223 12.0038 7.43815 11.6873 6.87479 11.124C6.31143 10.5606 5.99494 9.79654 5.99494 8.99983C5.99494 8.20312 6.31143 7.43904 6.87479 6.87568C7.43815 6.31232 8.20223 5.99583 8.99894 5.99583C9.79565 5.99583 10.5597 6.31232 11.1231 6.87568C11.6864 7.43904 12.0029 8.20312 12.0029 8.99983C12.0029 9.79654 11.6864 10.5606 11.1231 11.124C10.5597 11.6873 9.79565 12.0038 8.99894 12.0038Z" fill="white"/>
<path d="M13.806 5.28491C14.4013 5.28491 14.884 4.80227 14.884 4.20691C14.884 3.61154 14.4013 3.12891 13.806 3.12891C13.2106 3.12891 12.728 3.61154 12.728 4.20691C12.728 4.80227 13.2106 5.28491 13.806 5.28491Z" fill="white"/>
<path d="M17.533 3.11088C17.3015 2.51306 16.9477 1.97017 16.4943 1.51694C16.0409 1.06372 15.4979 0.710154 14.9 0.478883C14.2003 0.21624 13.4611 0.0742239 12.714 0.0588827C11.751 0.0168827 11.446 0.00488281 9.00395 0.00488281C6.56195 0.00488281 6.24895 0.00488271 5.29395 0.0588827C4.54734 0.0734396 3.80871 0.215484 3.10995 0.478883C2.51189 0.709884 1.96872 1.06335 1.51529 1.51661C1.06186 1.96987 0.708182 2.51291 0.476953 3.11088C0.214258 3.8105 0.0725676 4.54972 0.0579531 5.29688C0.0149531 6.25888 0.00195312 6.56388 0.00195312 9.00688C0.00195312 11.4489 0.00195312 11.7599 0.0579531 12.7169C0.0729531 13.4649 0.213953 14.2029 0.476953 14.9039C0.708831 15.5016 1.06285 16.0445 1.51639 16.4977C1.96993 16.9509 2.51302 17.3045 3.11095 17.5359C3.80839 17.8091 4.54732 17.9613 5.29595 17.9859C6.25895 18.0279 6.56395 18.0409 9.00595 18.0409C11.448 18.0409 11.761 18.0409 12.716 17.9859C13.4631 17.9707 14.2022 17.829 14.902 17.5669C15.4997 17.3351 16.0426 16.9812 16.4959 16.5279C16.9493 16.0745 17.3031 15.5316 17.535 14.9339C17.798 14.2339 17.939 13.4959 17.954 12.7479C17.997 11.7859 18.01 11.4809 18.01 9.03788C18.01 6.59488 18.01 6.28488 17.954 5.32788C17.9423 4.57016 17.7999 3.82013 17.533 3.11088ZM16.315 12.6429C16.3085 13.2192 16.2033 13.7901 16.004 14.3309C15.8538 14.7198 15.6239 15.0729 15.329 15.3676C15.0342 15.6622 14.6809 15.8919 14.292 16.0419C13.7572 16.2403 13.1923 16.3455 12.622 16.3529C11.672 16.3969 11.404 16.4079 8.96795 16.4079C6.52995 16.4079 6.28095 16.4079 5.31295 16.3529C4.74288 16.3459 4.17828 16.2407 3.64395 16.0419C3.25364 15.8929 2.89895 15.6636 2.60284 15.3688C2.30673 15.0741 2.07579 14.7205 1.92495 14.3309C1.7284 13.7959 1.62326 13.2317 1.61395 12.6619C1.57095 11.7119 1.56095 11.4439 1.56095 9.00788C1.56095 6.57088 1.56095 6.32188 1.61395 5.35288C1.62042 4.77691 1.72561 4.2063 1.92495 3.66588C2.22995 2.87688 2.85495 2.25588 3.64395 1.95388C4.17854 1.75602 4.74298 1.65085 5.31295 1.64288C6.26395 1.59988 6.53095 1.58788 8.96795 1.58788C11.405 1.58788 11.655 1.58788 12.622 1.64288C13.1924 1.64974 13.7573 1.75495 14.292 1.95388C14.6809 2.10416 15.0341 2.33408 15.3289 2.62891C15.6238 2.92374 15.8537 3.27695 16.004 3.66588C16.2005 4.20083 16.3056 4.76504 16.315 5.33488C16.358 6.28588 16.369 6.55288 16.369 8.98988C16.369 11.4259 16.369 11.6879 16.326 12.6439H16.315V12.6429Z" fill="white"/>
</svg>
