<svg width="21" height="18" viewBox="0 0 21 18" fill="none" xmlns="http://www.w3.org/2000/svg">
<path fill-rule="evenodd" clip-rule="evenodd" d="M16.2635 2.1824C16.5901 1.87026 17.0309 1.69459 17.4907 1.69337C17.9505 1.69214 18.3923 1.86546 18.7207 2.17586C19.049 2.48626 19.2374 2.90879 19.2453 3.3521C19.2531 3.79542 19.0797 4.22389 18.7625 4.5449L9.44787 15.7724C9.28778 15.9387 9.09457 16.0721 8.87978 16.1647C8.66499 16.2573 8.43304 16.3072 8.19779 16.3114C7.96254 16.3156 7.72884 16.2741 7.51064 16.1892C7.29244 16.1043 7.09423 15.9778 6.92787 15.8174L0.756205 9.8639C0.584269 9.70941 0.446364 9.52311 0.350716 9.31611C0.255068 9.10911 0.203637 8.88566 0.199491 8.65907C0.195345 8.43249 0.23857 8.20743 0.326586 7.9973C0.414601 7.78718 0.545605 7.5963 0.711783 7.43606C0.87796 7.27582 1.07591 7.14949 1.29381 7.06462C1.51172 6.97975 1.74512 6.93807 1.98009 6.94207C2.21506 6.94606 2.4468 6.99566 2.66146 7.08789C2.87613 7.18012 3.06933 7.3131 3.22954 7.4789L8.11554 12.1881L16.2192 2.2319C16.2337 2.21447 16.2493 2.19794 16.2659 2.1824H16.2635Z" fill="#29547A"/>
</svg>
