<svg width="21" height="18" viewBox="0 0 21 18" fill="none" xmlns="http://www.w3.org/2000/svg">
<path fill-rule="evenodd" clip-rule="evenodd" d="M16.2635 2.18264C16.5901 1.8705 17.0309 1.69483 17.4907 1.69361C17.9505 1.69239 18.3923 1.86571 18.7207 2.17611C19.049 2.4865 19.2374 2.90903 19.2453 3.35235C19.2531 3.79566 19.0797 4.22414 18.7625 4.54514L9.44787 15.7726C9.28778 15.9389 9.09457 16.0723 8.87978 16.165C8.66499 16.2576 8.43304 16.3075 8.19779 16.3117C7.96254 16.3159 7.72884 16.2743 7.51064 16.1894C7.29244 16.1045 7.09423 15.9781 6.92787 15.8176L0.756205 9.86414C0.584269 9.70965 0.446364 9.52335 0.350716 9.31635C0.255068 9.10935 0.203637 8.8859 0.199491 8.65932C0.195345 8.43274 0.23857 8.20767 0.326586 7.99755C0.414601 7.78742 0.545605 7.59655 0.711783 7.43631C0.87796 7.27606 1.07591 7.14974 1.29381 7.06487C1.51172 6.97999 1.74512 6.93831 1.98009 6.94231C2.21506 6.94631 2.4468 6.9959 2.66146 7.08814C2.87613 7.18037 3.06933 7.31335 3.22954 7.47914L8.11554 12.1884L16.2192 2.23214C16.2337 2.21471 16.2493 2.19818 16.2659 2.18264H16.2635Z" fill="#C9C9C9"/>
</svg>
